inDegrees=no
num_controls=7
num_derivatives=13
num_iterations=161
num_multipliers=7
num_parameters=0
num_slacks=7
num_states=26
objective=5.691149
objective_accelerations=0.490024
objective_balance=0.025517
objective_effort=0.520830
objective_height=4.606302
objective_ligament=0.048475
solver_duration=1777.851783
status=Solve_Succeeded
success=true
DataType=double
version=3
OpenSimVersion=4.4-2022-07-23-0e9fedc
endheader
time	/jointset/ground_pelvis/pelvis_tilt/value	/jointset/ground_pelvis/pelvis_tx/value	/jointset/ground_pelvis/pelvis_ty/value	/jointset/hip_l/hip_flexion_l/value	/jointset/hip_l/hip_adduction_l/value	/jointset/hip_l/hip_rotation_l/value	/jointset/back/lumbar_extension/value	/jointset/patellofemoral_l/patellar_flexion_l/value	/jointset/knee_l/knee_flexion_l/value	/jointset/knee_l/knee_adduction_l/value	/jointset/knee_l/knee_rotation_l/value	/jointset/ankle_l/ankle_angle_l/value	/jointset/subtalar_l/subtalar_angle_l/value	/jointset/ground_pelvis/pelvis_tilt/speed	/jointset/ground_pelvis/pelvis_tx/speed	/jointset/ground_pelvis/pelvis_ty/speed	/jointset/hip_l/hip_flexion_l/speed	/jointset/hip_l/hip_adduction_l/speed	/jointset/hip_l/hip_rotation_l/speed	/jointset/back/lumbar_extension/speed	/jointset/patellofemoral_l/patellar_flexion_l/speed	/jointset/knee_l/knee_flexion_l/speed	/jointset/knee_l/knee_adduction_l/speed	/jointset/knee_l/knee_rotation_l/speed	/jointset/ankle_l/ankle_angle_l/speed	/jointset/subtalar_l/subtalar_angle_l/speed	/forceset/tau_hip_flexion_l	/forceset/tau_hip_adduction_l	/forceset/tau_hip_rotation_l	/forceset/tau_knee_flexion_l	/forceset/tau_ankle_angle_l	/forceset/tau_subtalar_angle_l	/forceset/tau_lumbar_extension	lambda_cid13_p0	lambda_cid13_p1	lambda_cid13_p2	lambda_cid13_p3	lambda_cid13_p4	lambda_cid13_p5	lambda_cid14_p0	/jointset/ground_pelvis/pelvis_tilt/accel	/jointset/ground_pelvis/pelvis_tx/accel	/jointset/ground_pelvis/pelvis_ty/accel	/jointset/hip_l/hip_flexion_l/accel	/jointset/hip_l/hip_adduction_l/accel	/jointset/hip_l/hip_rotation_l/accel	/jointset/back/lumbar_extension/accel	/jointset/patellofemoral_l/patellar_flexion_l/accel	/jointset/knee_l/knee_flexion_l/accel	/jointset/knee_l/knee_adduction_l/accel	/jointset/knee_l/knee_rotation_l/accel	/jointset/ankle_l/ankle_angle_l/accel	/jointset/subtalar_l/subtalar_angle_l/accel	gamma_cid13_p0	gamma_cid13_p1	gamma_cid13_p2	gamma_cid13_p3	gamma_cid13_p4	gamma_cid13_p5	gamma_cid14_p0
0	-0.03666821785362707	0.05661026937573334	0.9203443370062117	0.3085811930696054	-0.2955968753666509	-0.3006406898053837	-0.3879500408040475	0.2499276582270508	0.249927658227084	-0.1745326875044778	-0.1735848193788656	-0.0008036543073733089	0.0004703943753914796	0	0	0	0	0	0	0	0	0	0	0	0	0	0.06516387403042381	-0.02516215435683474	-0.01658401408440957	-0.2155661349596344	0.1384101610511205	-0.01992609974396262	0.002986130703576666	0.4440637876350592	5.519467523277876	2.157208229499658	30.83404010194311	-621.1840300579067	-63.63188692673116	-23.1647750332035	-1.591686140437068	-2.486072336346781	-0.9647139495651628	9.819140721328163	-0.8070770414359925	2.86311269179771	-7.349074889238437	8.216119092239317	8.216119092241362	0.9545404836253004	-0.1816833549766974	0.347420106118724	-0.7512814333908596	1.245057746075849e-08	9.912948644603155e-08	3.851929035227864e-08	-2.410966810271219e-08	1.44564326395003e-07	3.754663968935697e-08	-6.686552682412511e-10
0.01	-0.0367436833464082	0.05648799561255125	0.9202971598333629	0.3090599313301238	-0.2956374142336051	-0.3004969081919713	-0.3883156791453883	0.250330081080079	0.2503300810801287	-0.1744883260747284	-0.1735907763139232	-0.0007870843652306865	0.0004323539028798477	-0.01502466306721287	-0.02427215481602749	-0.009393932741288321	0.09521855247585172	-0.008060801741510654	0.02866067136753406	-0.07258228418155674	0.08009933695221563	0.08009933695223069	0.008830856157906429	-0.001136790365606333	0.003386123705352205	-0.007533432192465037	0.06028001095800659	-0.03782170246104648	-0.01609351347031895	-0.2135341767411349	0.1341581501975141	-0.005596626682160617	0.008198475104547727	-0.4786584860349315	-0.4188603721536467	2.96298765582732	28.97433764570979	-624.1190223112129	-75.70515909519837	-23.16965664928393	-1.447598130905484	-2.37040220090192	-0.9204787492360212	9.293843425094327	-0.7985543066389493	2.853194822431271	-7.130997571192371	7.849056081682146	7.849056081683225	0.8411621746519845	-0.07148322219140514	0.3450327089743394	-0.7431953314247143	-1.584739870973399e-08	1.109907421206326e-07	9.972950127561888e-08	4.546731481878299e-09	3.136004547530729e-08	6.887874122028822e-09	-7.371512104833378e-09
0.02	-0.03696734381803205	0.05612847727187722	0.9201572941705367	0.3104749812982905	-0.2957571556311971	-0.3000693897722421	-0.3893907788062506	0.2515219403196424	0.2515219403196455	-0.1743568952848931	-0.1736064624215793	-0.0007344883447870709	0.0003212148645935692	-0.02963899577625622	-0.04744891549838442	-0.01853769799549523	0.1872623415269548	-0.01584050612821613	0.05674736126307426	-0.1418922639063627	0.1578872773032075	0.1578872773032281	0.01741387202695297	-0.001945834524759465	0.007205215659948132	-0.01461971315494362	0.05539614788547283	-0.0504812505653154	-0.0156030128563711	-0.2115022185226888	0.1299061393438598	0.008732846379567753	0.01341081950547078	-1.3379524700616	-6.366809158608477	3.768604116884562	27.07395920574142	-626.0610595658895	-87.70364238905928	-23.18394932383191	-1.509620068804079	-2.266993509611882	-0.9146804521488654	9.184188036378353	-0.7508575704749454	2.748316397398991	-6.694613997888799	7.753839771994402	7.753839771994544	0.904972425853297	-0.1161341136859202	0.4340137559683403	-0.6618511873932543	-4.414537488022647e-08	1.228519977952337e-07	1.609397121989591e-07	3.320313106646879e-08	-8.18442354443884e-08	-2.377089144529933e-08	-1.407436894142551e-08
0.03	-0.03733519731083799	0.05554231982167844	0.9199269845460837	0.312795374366597	-0.2959531432817807	-0.2993646779871108	-0.3911430541857435	0.2534803909550231	0.2534803909550448	-0.1741406534845341	-0.1736293732820958	-0.0006419940212424277	0.0001414486085098254	-0.04384753625971784	-0.06963449641943988	-0.0275040421756866	0.2763304570197674	-0.02330334582431067	0.08405114211256762	-0.2080900209246327	0.2334371622254063	0.2334371622254184	0.02579585542803926	-0.002629751069970052	0.01132085786562392	-0.02126714795439068	0.04930265861285207	-0.04334299759229443	-0.01503517605013443	-0.2074918009660835	0.1286003235289687	0.005037439236747964	0.01905483942220262	-1.930550751615125	-4.725110566062952	3.583375808204463	26.29051146570082	-627.5259671378318	-83.41416726204812	-23.20699207583427	-1.363851994712001	-2.172121906515639	-0.884600519243649	8.695243005912562	-0.7359781282150784	2.69981037210241	-6.511437895074284	7.400712561303398	7.400712561302061	0.799049507218934	-0.04350711808590667	0.404421554839245	-0.6562690218844592	-6.139830240721412e-08	1.141491345314512e-07	2.017689749832417e-07	4.999755053548372e-08	-1.582061318145242e-07	-4.449628628575568e-08	-1.9971966780678e-08
0.04	-0.03784261239976917	0.05473875025763884	0.9196076136561709	0.3159918725298915	-0.2962221555211367	-0.2983912481048154	-0.3935431234036687	0.256183370381447	0.2561833703814481	-0.1738417442081912	-0.1736589206466631	-0.0005075268552461051	-0.0001028078747010646	-0.05755131500712518	-0.09093133826655032	-0.03634995108744175	0.3624833605197796	-0.03044542388195001	0.1104909806971841	-0.2714510315941503	0.306793035506434	0.3067930355064356	0.03394736722843881	-0.003273135341068564	0.01559978415018972	-0.02751775858039231	0.04320916934029766	-0.03620474461923113	-0.01446733924409863	-0.2034813834093957	0.127294507714109	0.001342032093985167	0.02469885933894551	-2.464342555923273	-3.091356892970716	3.396727565078446	25.46075601752156	-628.0880764459398	-79.05274492392732	-23.23807699927051	-1.408667721594114	-2.089245694822114	-0.8905933984616073	8.601145637818165	-0.6867052427839402	2.57552794442368	-6.127264728138846	7.315037443760033	7.315037443759768	0.858878105715835	-0.1080276588633787	0.4666705717471747	-0.5824863527039105	-7.842349697248002e-08	1.050222688153309e-07	2.421780120326983e-07	6.654739309489917e-08	-2.338083913898238e-07	-6.501686935864768e-08	-2.585296134163484e-08
0.05	-0.03848491576347458	0.05372679339069499	0.9192002063357885	0.3200357785989968	-0.296560839385553	-0.2971578756260935	-0.3965621858016261	0.2596091360523225	0.2596091360523398	-0.1734622869305506	-0.1736947985383687	-0.0003292675166132799	-0.0004073724563726859	-0.07083070595293625	-0.1112971789237946	-0.04512379559204679	0.4458046847557036	-0.03723138087215098	0.1360498478164425	-0.3318803196571318	0.3779899047135418	0.3779899047135524	0.04189888811434209	-0.003879276529495247	0.02009139049692141	-0.03331853173063874	0.03703971100434753	-0.03632157694451668	-0.01387286630809093	-0.2004817005419549	0.1251678274976842	0.004228117024072984	0.03043098343907293	-3.01396247016425	-4.2386697859623	3.568356178167015	24.24802365724005	-628.7689634580513	-80.5774731113324	-23.27631907523408	-1.275781330995191	-1.985811376152805	-0.8696697394776537	8.123640868298331	-0.6655818115221891	2.525981254376071	-5.928591595688934	6.966487783423348	6.966487783424925	0.7565453143772796	-0.03339162636366763	0.4463003439633051	-0.5674229433461456	-9.158324916469411e-08	8.897656339384509e-08	2.721138475356155e-07	7.96786596620433e-08	-2.954072401422575e-07	-8.337509364409442e-08	-3.073401113857234e-08
